<svg width="21" height="21" viewBox="0 0 21 21" fill="none" xmlns="http://www.w3.org/2000/svg">
<path d="M15.2915 1.87496C15.5432 1.62326 15.842 1.4236 16.1709 1.28738C16.4997 1.15117 16.8522 1.08105 17.2082 1.08105C17.5641 1.08105 17.9166 1.15117 18.2455 1.28738C18.5743 1.4236 18.8731 1.62326 19.1248 1.87496C19.3765 2.12666 19.5762 2.42548 19.7124 2.75434C19.8486 3.0832 19.9187 3.43567 19.9187 3.79163C19.9187 4.14759 19.8486 4.50006 19.7124 4.82892C19.5762 5.15779 19.3765 5.4566 19.1248 5.7083L6.18734 18.6458L0.916504 20.0833L2.354 14.8125L15.2915 1.87496Z" stroke="#6AC7BE" stroke-width="1.25" stroke-linecap="round" stroke-linejoin="round"/>
</svg>
