<svg width="20" height="20" viewBox="0 0 20 20" fill="none" xmlns="http://www.w3.org/2000/svg">
<path d="M2.5 5H4.16667H17.5" stroke="#6AC7BE" stroke-width="1.25" stroke-linecap="round" stroke-linejoin="round"/>
<path d="M6.5 5.33333V3.66667C6.5 3.22464 6.67559 2.80072 6.98816 2.48816C7.30072 2.17559 7.72464 2 8.16667 2H11.5C11.942 2 12.366 2.17559 12.6785 2.48816C12.9911 2.80072 13.1667 3.22464 13.1667 3.66667V5.33333M15.6667 5.33333V17C15.6667 17.442 15.4911 17.8659 15.1785 18.1785C14.866 18.4911 14.442 18.6667 14 18.6667H5.66667C5.22464 18.6667 4.80072 18.4911 4.48816 18.1785C4.17559 17.8659 4 17.442 4 17V5.33333H15.6667Z" stroke="#6AC7BE" stroke-width="1.25" stroke-linecap="round" stroke-linejoin="round"/>
<path d="M8.3335 9.16669V14.1667" stroke="#6AC7BE" stroke-width="1.25" stroke-linecap="round" stroke-linejoin="round"/>
<path d="M11.6665 9.16669V14.1667" stroke="#6AC7BE" stroke-width="1.25" stroke-linecap="round" stroke-linejoin="round"/>
</svg>
