<svg width="23" height="23" viewBox="0 0 23 23" fill="none" xmlns="http://www.w3.org/2000/svg">
<g clip-path="url(#clip0)">
<path d="M22.4092 2.06119C21.8524 1.32301 21.0028 0.899679 20.0781 0.899679H19.6867V0.675075C19.6867 0.302953 19.385 0.00126562 19.0129 0.00126562C18.6408 0.00126562 18.3391 0.302953 18.3391 0.675075V2.4719C18.3391 2.84402 18.6408 3.14571 19.0129 3.14571C19.385 3.14571 19.6867 2.84402 19.6867 2.4719V2.2473H20.0781C20.576 2.2473 21.0335 2.47527 21.3333 2.87273C21.6331 3.27019 21.7266 3.77271 21.5898 4.25143L19.8015 10.5108C19.3024 12.2575 17.6851 13.4774 15.8684 13.4774C14.0518 13.4774 12.4345 12.2575 11.9354 10.5108L10.1471 4.25139C10.0103 3.77267 10.1038 3.27014 10.4036 2.87268C10.7034 2.47518 11.1609 2.24725 11.6588 2.24725H12.0502V2.47186C12.0502 2.84398 12.3519 3.14567 12.724 3.14567C13.0961 3.14567 13.3978 2.84398 13.3978 2.47186V0.675031C13.3978 0.302908 13.0961 0.0012207 12.724 0.0012207C12.3519 0.0012207 12.0502 0.302908 12.0502 0.675031V0.899634H11.6588C10.7342 0.899634 9.88452 1.32301 9.32773 2.06115C8.77089 2.79933 8.59727 3.73255 8.8513 4.62158L10.6397 10.8809C10.967 12.0264 11.6427 13.011 12.5937 13.7284C12.7976 13.8822 13.0102 14.0194 13.2295 14.1417L15.1947 18.7801V19.2664C15.1947 20.5824 14.1241 21.653 12.8081 21.653C11.4922 21.653 10.4216 20.5824 10.4216 19.2664V14.6454C10.4216 12.5152 8.68855 10.7822 6.55841 10.7822C4.42828 10.7822 2.69524 12.5152 2.69524 14.6454V16.2404C1.15931 16.5534 0 17.9147 0 19.5417C0 21.3994 1.51135 22.9108 3.36905 22.9108C5.22674 22.9108 6.7381 21.3994 6.7381 19.5417C6.7381 17.9147 5.57878 16.5535 4.04286 16.2404V14.6454C4.04286 13.2583 5.17135 12.1298 6.55841 12.1298C7.94547 12.1298 9.07397 13.2583 9.07397 14.6454V19.2664C9.07397 21.3255 10.7491 23.0006 12.8081 23.0006C14.8672 23.0006 16.5423 21.3255 16.5423 19.2664V18.7801L18.5075 14.1417C18.7268 14.0194 18.9394 13.8822 19.1432 13.7284C20.0943 13.0111 20.77 12.0264 21.0973 10.8809L22.8857 4.62158C23.1397 3.7326 22.966 2.79933 22.4092 2.06119ZM5.39048 19.5417C5.39048 20.6563 4.48366 21.5631 3.36905 21.5631C2.25443 21.5631 1.34762 20.6563 1.34762 19.5417C1.34762 18.4271 2.25443 17.5203 3.36905 17.5203C4.48366 17.5203 5.39048 18.4271 5.39048 19.5417ZM15.8685 16.916L14.9498 14.7476C15.2506 14.7986 15.5575 14.825 15.8685 14.825C16.1796 14.825 16.4864 14.7986 16.7872 14.7476L15.8685 16.916Z" fill="#6AC7BE"/>
<path d="M3.36914 20.2148C3.74129 20.2148 4.04297 19.9132 4.04297 19.541C4.04297 19.1689 3.74129 18.8672 3.36914 18.8672C2.997 18.8672 2.69531 19.1689 2.69531 19.541C2.69531 19.9132 2.997 20.2148 3.36914 20.2148Z" fill="#6AC7BE"/>
</g>
<defs>
<clipPath id="clip0">
<rect width="23" height="23" fill="white"/>
</clipPath>
</defs>
</svg>
